<?xml version="1.0" encoding="utf-8"?>
<!-- Generator: Adobe Illustrator 27.0.0, SVG Export Plug-In . SVG Version: 6.00 Build 0)  -->
<svg version="1.1" id="Layer_1" xmlns="http://www.w3.org/2000/svg" xmlns:xlink="http://www.w3.org/1999/xlink" x="0px" y="0px"
	 viewBox="0 0 49.7 49.7" style="enable-background:new 0 0 49.7 49.7;" xml:space="preserve">
<style type="text/css">
	.st0{fill:#FFFFFF;fill-opacity:0;}
	.st1{fill:url(#SVGID_1_);stroke:#8F65D0;stroke-linecap:round;stroke-linejoin:round;stroke-miterlimit:10;}
</style>
<rect class="st0" width="49.7" height="49.7"/>
<linearGradient id="SVGID_1_" gradientUnits="userSpaceOnUse" x1="31.49" y1="39.3798" x2="14.4316" y2="9.8339">
	<stop  offset="0" style="stop-color:#9FE3F0"/>
	<stop  offset="1" style="stop-color:#D6ACF9"/>
</linearGradient>
<path class="st1" d="M3.7,46.8L14.4,17l19.3,19.1L3.7,46.8z M11.4,39.2l14-5l-9-9.1L11.4,39.2z M30,27.1L27.8,25l11.2-11.3
	c1.1-1.2,2.7-1.8,4.6-1.8c1.9,0,3.5,0.6,4.7,1.7l0.8,0.8l-2.2,2.2L46,15.7c-0.7-0.6-1.4-1-2.3-1c-0.9,0-1.6,0.3-2.2,1L30,27.1z
	 M21,18.4l-2.2-2.2l1.2-1.3c0.8-0.8,1.2-1.6,1.1-2.6c0-1-0.4-1.9-1.1-2.6l-1.4-1.4l2.2-2.2l1.3,1.3c1.3,1.4,1.9,3,1.9,4.9
	c0,1.9-0.7,3.6-2,4.9L21,18.4z M25.6,22.8l-2.2-2.2l7.1-7.1c0.6-0.6,0.9-1.5,0.9-2.5c0-1-0.3-1.8-0.9-2.4l-3-3l2.2-2.2l3.1,3.1
	c1.2,1.2,1.8,2.7,1.8,4.6c0,1.9-0.6,3.4-1.7,4.6L25.6,22.8z M34.5,31.7l-2.2-2.2l2-2c1.3-1.3,2.9-2,4.7-2s3.4,0.6,4.8,2l2.4,2.4
	l-2.2,2.2l-2.5-2.4c-0.8-0.8-1.6-1.1-2.5-1.1s-1.7,0.4-2.5,1.1L34.5,31.7z"/>
</svg>
