<svg xmlns="http://www.w3.org/2000/svg" height="48" viewBox="0 -960 960 960" width="48"><path d="M560-583.752q0-3.8 4.024-8.605 4.024-4.804 7.976-9.105Q601.791-611 632.918-617t66.358-6q22.02 0 43.254 2.546 21.235 2.547 42.073 7.621 6.397 1.037 10.897 7.08 4.5 6.044 4.5 10.973 0 12.949-8 18.864Q784-570 774-574q-17.8-4-36.4-6.5Q719-583 700-583q-29.342 0-55.671 5.5T592.561-563q-13.439 6-23-.795Q560-570.589 560-583.752Zm0 220.538q0-4.628 4.024-9.739 4.024-5.112 7.976-9.509Q601.791-392 632.918-397.5t66.358-5.5q22.02 0 43.254 2.546 21.235 2.547 42.073 7.621 6.397 1.037 10.897 7.08 4.5 6.044 4.5 10.973 0 12.949-8 18.864Q784-350 774-354q-17.8-4-36.4-6.5Q719-363 700-363q-29.342 0-55.671 5t-51.768 14q-13.439 6-23 .525Q560-348.951 560-363.214Zm0-110.538q0-3.8 4.024-8.605 4.024-4.804 7.976-9.105Q601.791-501 632.918-507t66.358-6q22.02 0 43.254 2.546 21.235 2.547 42.073 7.621 6.397 1.037 10.897 7.08 4.5 6.044 4.5 10.973 0 12.949-8 18.864Q784-460 774-464q-17.8-4-36.4-6.5Q719-473 700-473q-29.342 0-55.671 5.5T592.561-453q-13.439 6-23-.795Q560-460.589 560-473.752ZM248-273q53.912 0 104.956 12.5Q404-248 452-223v-426.255Q408-679 355.118-695.5 302.237-712 248.206-712 210-712 174-702.5t-73 23.466V-246q30-13 69.5-20t77.5-7Zm263 50q50.017-25 98.271-37.5Q657.526-273 711.794-273q38.206 0 78.706 6t68.5 16v-429.102Q825-698 787.678-705q-37.323-7-75.884-7-54.268 0-105.031 16.5Q556-679 511-649.255V-223ZM277-462Zm207.562 341q-7.703 0-16.702-1.962-8.999-1.961-16.86-6.038-46-30-97.553-46-51.554-16-105.505-16-33.088 0-65.799 9.452Q149.432-172.095 117-162q-32.45 17-65.225-1.16Q19-181.319 19-222v-459.692Q19-706 30-727.3q11-21.3 33-32.7 43.383-18.5 89.52-26.75 46.137-8.25 93.465-8.25 63.329 0 123.672 17.5Q430-760 482-723q52-36 110.358-54 58.358-18 121.697-18 47.103 0 93.024 9.5T896-760q22 11.4 33.5 32.7Q941-706 941-681v470q0 36.936-33.325 52.968Q874.35-142 842-162q-31.432-11.095-63.932-20.048-32.5-8.952-65.513-8.952-53.312 0-102.434 16.5Q561-158 517-129q-6.766 4.077-15.75 6.038Q492.265-121 484.562-121Z"/></svg>